<svg xmlns="http://www.w3.org/2000/svg" width="55.361" height="44.963" viewBox="0 0 55.361 44.963"><path d="M49.671,59.288c.035.492.035.984.035,1.475,0,15-11.416,32.282-32.282,32.282A32.064,32.064,0,0,1,0,87.952a23.474,23.474,0,0,0,2.74.14,22.723,22.723,0,0,0,14.086-4.848A11.366,11.366,0,0,1,6.218,75.376a14.308,14.308,0,0,0,2.143.176,12,12,0,0,0,2.986-.386,11.348,11.348,0,0,1-9.1-11.136v-.14a11.427,11.427,0,0,0,5.129,1.44A11.363,11.363,0,0,1,3.864,50.155a32.251,32.251,0,0,0,23.4,11.873,12.808,12.808,0,0,1-.281-2.6,11.357,11.357,0,0,1,19.636-7.763,22.339,22.339,0,0,0,7.2-2.74,11.316,11.316,0,0,1-4.988,6.253,22.746,22.746,0,0,0,6.534-1.756,24.39,24.39,0,0,1-5.691,5.866Z" transform="translate(0 -48.082)" fill="rgb(223, 133, 67)"/></svg>